<svg height="479pt" viewBox="-28 0 479 479.19829" width="479pt" xmlns="http://www.w3.org/2000/svg" xmlns:xlink="http://www.w3.org/1999/xlink"><linearGradient id="a"><stop offset="0" stop-color="#e93e3a"/><stop offset=".356" stop-color="#ed683c"/><stop offset=".702" stop-color="#f3903f"/><stop offset="1" stop-color="#fdc70c"/></linearGradient><linearGradient id="b" gradientUnits="userSpaceOnUse" x1="211.697437" x2="211.697437" xlink:href="#a" y1="479.198292" y2="-25.841708"/><linearGradient id="c" gradientUnits="userSpaceOnUse" x1="335.297437" x2="335.297437" xlink:href="#a" y1="479.238292" y2="-25.801708"/><linearGradient id="d" gradientUnits="userSpaceOnUse" x1="379.298386" x2="379.298386" xlink:href="#a" y1="479.235437" y2="-25.804563"/><linearGradient id="e" gradientUnits="userSpaceOnUse" x1="291.301178" x2="291.301178" xlink:href="#a" y1="479.238786" y2="-25.801214"/><path d="m415.296875 95.199219h-160c-1.117187.007812-2.222656.25-3.238281.710937l-132.761719 58.976563v-77.097657l52.855469-52.855468c3.125-3.125 3.125-8.1875 0-11.3125l-11.253906-11.277344c-3.125-3.125-8.1875-3.125-11.3125 0l-147.144532 147.117188c-3.121094 3.125-3.121094 8.1875 0 11.3125l11.28125 11.28125c3.121094 3.121093 8.1875 3.121093 11.3125 0l46.261719-46.265626v345.410157c0 4.417969 3.582031 8 8 8h32c4.417969 0 8-3.582031 8-8v-298.800781l128-56.886719v3.6875c0 8.835937 7.164063 16 16 16h144c8.835937 0 16-7.164063 16-16v-16c0-4.417969-3.582031-8-8-8zm-312 368h-16v-353.410157l16-16zm160-344v-8h144v8zm0 0" fill="url(#b)"/><path d="m327.296875 151.199219h16v32h-16zm0 0" fill="url(#c)"/><path d="m367.539062 153.136719 15.511719-3.878907 8 31.996094-15.511719 3.878906zm0 0" fill="url(#d)"/><path d="m279.542969 181.269531 7.992187-32.003906 15.515625 3.875-7.992187 32.003906zm0 0" fill="url(#e)"/></svg>