<svg id="Flat" height="512" viewBox="0 0 512 512" width="512" xmlns="http://www.w3.org/2000/svg"><g id="_19_copy_4" data-name="19 copy 4"><g><path d="m32 256h368v216h-368z" fill="#e2fbfb"/><path d="m264 320h48v104h-48z" fill="#adeaec"/><path d="m34 456h364a10 10 0 0 1 10 10v22a0 0 0 0 1 0 0h-384a0 0 0 0 1 0 0v-22a10 10 0 0 1 10-10z" fill="#31cad0"/><path d="m408 272h-256v-120h209.132a10 10 0 0 1 9.333 6.41l37.535 97.59z" fill="#31cad0"/><rect fill="#fdbf44" height="80" rx="6" width="96" x="248" y="136"/><path d="m245.526 253.172-102-116.571a10 10 0 0 0 -15.052 0l-102 116.571a10 10 0 0 0 -2.474 6.585v12.243h224v-12.243a10 10 0 0 0 -2.474-6.585z" fill="#36dfe6"/><g><circle cx="432" cy="80" fill="#fdbf44" r="32"/><g fill="#fee6aa"><g><path d="m424 16h16v16h-16z"/><path d="m424 128h16v16h-16z"/></g><g><path d="m384.402 32.402h16v16h-16z" transform="matrix(.707 -.707 .707 .707 86.369 289.31)"/><path d="m463.598 111.598h16v16h-16z" transform="matrix(.707 -.707 .707 .707 53.565 368.509)"/></g><g><path d="m463.598 32.402h16v16h-16z" transform="matrix(.707 -.707 .707 .707 109.546 345.288)"/><path d="m384.402 111.598h16v16h-16z" transform="matrix(.707 -.707 .707 .707 30.355 312.484)"/></g><g><path d="m368 72h16v16h-16z"/><path d="m480 72h16v16h-16z"/></g></g></g><path d="m104 288h32v16h-32z" fill="#adeaec"/><path d="m81.532 88.048a24 24 0 0 0 -25.532 23.952h-12a20 20 0 0 0 -20 20v4h56a24 24 0 0 0 1.532-47.952z" fill="#fee6aa"/><path d="m289.532 40.048a24 24 0 0 0 -25.532 23.952h-12a20 20 0 0 0 -20 20v4h56a24 24 0 0 0 1.532-47.952z" fill="#fee6aa"/><g><circle cx="400" cy="392" fill="#fdbf44" r="96"/><path d="m408 336-56 64h40v48l48-72h-32z" fill="#feefdc"/></g></g><path d="m344 168h-24v-32h-16v32h-16v-32h-16v32h-24v16h24v32h16v-32h16v32h16v-32h24z" fill="#cc9a37"/><path d="m200 320h48v104h-48z" fill="#adeaec"/><g fill="#adeaec"><path d="m72 320h40v136h-40z"/><path d="m128 320h40v136h-40z"/></g><path d="m152 232v-24a16 16 0 0 0 -32 0v24h-16v16h64v-16z" fill="#effbfb"/></g></svg>