<svg height="512" viewBox="0 0 64 64" width="512" xmlns="http://www.w3.org/2000/svg"><g id="Solar_power-light" data-name="Solar power-light"><path d="m48 58h-26v-2h25v-16h2v17a1 1 0 0 1 -1 1z" fill="#1a6fb0"/><circle cx="16" cy="13" fill="#ffda44" r="6"/><path d="m45 34h6v4h-6z" fill="#ff9811"/><path d="m45 38h6a3 3 0 0 1 -6 0z" fill="#ff5023"/><path d="m45 33.41a8 8 0 1 1 6 0v.59h-6z" fill="#ffeb99"/><path d="m58 25h4v2h-4z" fill="#ffda44"/><path d="m55.485 32.486h2v4h-2z" fill="#ffda44" transform="matrix(.707 -.707 .707 .707 -7.841 50.042)"/><path d="m37.515 33.485h4v2h-4z" fill="#ffda44" transform="matrix(.707 -.707 .707 .707 -12.811 38.042)"/><path d="m34 25h4v2h-4z" fill="#ffda44"/><path d="m38.515 15.515h2v4h-2z" fill="#ffda44" transform="matrix(.707 -.707 .707 .707 -.811 33.071)"/><path d="m47 12h2v4h-2z" fill="#ffda44"/><path d="m54.486 16.515h4v2h-4z" fill="#ffda44" transform="matrix(.707 -.707 .707 .707 4.159 45.071)"/><path d="m53 27v2h-2a1 1 0 0 1 -.97-.76l-.57-2.28-.75.75a1.008 1.008 0 0 1 -1.42 0l-.75-.75-.57 2.28a1 1 0 0 1 -.97.76h-2v-2h1.22l.81-3.24a1 1 0 0 1 .7-.72 1.011 1.011 0 0 1 .98.25l1.29 1.3 1.29-1.3a1.011 1.011 0 0 1 .98-.25 1 1 0 0 1 .7.72l.81 3.24z" fill="#ff5023"/><g fill="#ff9811"><path d="m15 2h2v2h-2z"/><path d="m22.071 4.929h2v2h-2z" transform="matrix(.707 -.707 .707 .707 2.565 18.05)"/><path d="m25 12h2v2h-2z"/><path d="m22.071 19.071h2v2h-2z" transform="matrix(.707 -.707 .707 .707 -7.435 22.192)"/><path d="m15 22h2v2h-2z"/><path d="m7.929 19.071h2v2h-2z" transform="matrix(.707 -.707 .707 .707 -11.577 12.192)"/><path d="m5 12h2v2h-2z"/><path d="m7.929 4.929h2v2h-2z" transform="matrix(.707 -.707 .707 .707 -1.577 8.05)"/></g><path d="m46 35h1v3h-1z" fill="#ffb655"/><path d="m28 33 .32 6h-8.32v-6z" fill="#46f8ff"/><path d="m18 55h4v4h-4z" fill="#e0e0e2"/><path d="m14 52h4v10h-4z" fill="#3e3d42"/><path d="m12 33v6h-8.32l.32-6z" fill="#46f8ff"/><path d="m12 46v6h-9l.32-6z" fill="#46f8ff"/><path d="m12 39h8v7h-8z" fill="#46f8ff"/><path d="m28.68 46 .32 6h-9v-6z" fill="#46f8ff"/><path d="m20 46v6h-2-4-2v-6z" fill="#00eed1"/><path d="m12 39v7h-8.68l.36-7z" fill="#00eed1"/><path d="m12 33h8v6h-8z" fill="#00eed1"/><path d="m28.32 39 .36 7h-8.68v-7z" fill="#00eed1"/><path d="m14 52h4v1h-4z" fill="#2d2d30"/><path d="m11 61h10v2h-10z" fill="#231f20"/><path d="m12 46v6h.308l6.923-6z" fill="#66f5e3"/><path d="m3.32 46-.32 6h1.154l6.923-6z" fill="#90fbff"/><path d="m20 39v6.4l7.385-6.4z" fill="#66f5e3"/><path d="m20 33v5.4l6.231-5.4z" fill="#90fbff"/><path d="m12 33v5.4l6.231-5.4z" fill="#66f5e3"/><path d="m4 33-.302 5.662 6.533-5.662z" fill="#90fbff"/><path d="m3.68 39-.352 6.849 7.903-6.849z" fill="#66f5e3"/><path d="m12 39v6.4l7.385-6.4z" fill="#90fbff"/><path d="m20 46v5.4l6.231-5.4z" fill="#90fbff"/></g></svg>