<svg id="Capa_1" enable-background="new 0 0 512.015 512.015" height="512" viewBox="0 0 512.015 512.015" width="512" xmlns="http://www.w3.org/2000/svg"><g><path d="m346.006 316.007c-8.291 0-15 6.709-15 15v60c0 8.291 6.709 15 15 15s15-6.709 15-15v-60c0-8.291-6.709-15-15-15z" fill="#cce6ff"/><path d="m361.006 391.007v-60c0-8.291-6.709-15-15-15v90c8.291 0 15-6.709 15-15z" fill="#b3ccff"/><path d="m406.006 376.007h-60-60c-8.291 0-15 6.709-15 15v60h75 75v-60c0-8.291-6.709-15-15-15z" fill="#e6f2ff"/><path d="m421.006 391.007c0-8.291-6.709-15-15-15h-60v75h75z" fill="#cce6ff"/><path d="m497.006 46.007h-91-90c-7.037 0-13.127 4.883-14.648 11.748l-60 270c-2.054 9.294 4.993 18.252 14.648 18.252h90 90c7.037 0 13.127-4.883 14.648-11.748l61-270c2.075-9.384-5.084-18.252-14.648-18.252z" fill="#e6f2ff"/><path d="m450.655 334.259 61-270c2.075-9.384-5.085-18.252-14.648-18.252h-91l-60 300h90c7.036 0 13.126-4.883 14.648-11.748z" fill="#cce6ff"/><path d="m463.97 136.007h-59.26l13.334-60h59.256z" fill="#80aaff"/><path d="m443.975 226.007h-59.264l13.334-60h59.26z" fill="#80aaff"/><g fill="#9cf"><path d="m308.037 166.007h59.264l-13.333 60h-59.261z"/><path d="m328.033 76.007h59.269l-13.334 60h-59.266z"/><path d="m288.042 256.007h59.261l-13.334 60h-59.257z"/></g><path d="m423.98 316.007h-59.27l13.334-60h59.266z" fill="#80aaff"/><path d="m106.006 316.007c-8.291 0-15 6.709-15 15v60c0 8.291 6.709 15 15 15s15-6.709 15-15v-60c0-8.291-6.709-15-15-15z" fill="#cce6ff"/><path d="m121.006 391.007v-60c0-8.291-6.709-15-15-15v90c8.291 0 15-6.709 15-15z" fill="#b3ccff"/><path d="m166.006 376.007h-60-60c-8.291 0-15 6.709-15 15v60h75 75v-60c0-8.291-6.709-15-15-15z" fill="#e6f2ff"/><path d="m181.006 391.007c0-8.291-6.709-15-15-15h-60v75h75z" fill="#cce6ff"/><path d="m256.006 46.007h-90-90c-7.037 0-13.127 4.883-14.648 11.748l-61 270c-2.054 9.294 4.993 18.252 14.648 18.252h91 90c7.037 0 13.127-4.883 14.648-11.748l60-270c2.075-9.384-5.084-18.252-14.648-18.252z" fill="#e6f2ff"/><path d="m210.655 334.259 60-270c2.075-9.384-5.085-18.252-14.648-18.252h-90l-60 300h90c7.036 0 13.126-4.883 14.648-11.748z" fill="#cce6ff"/><path d="m223.97 136.007h-59.26l13.334-60h59.256z" fill="#80aaff"/><path d="m203.975 226.007h-59.264l13.334-60h59.26z" fill="#80aaff"/><path d="m68.037 166.007h59.264l-13.333 60h-59.261z" fill="#9cf"/><path d="m88.033 76.007h59.269l-13.334 60h-59.266z" fill="#9cf"/><path d="m48.042 256.007h59.261l-13.334 60h-59.257z" fill="#9cf"/><path d="m183.98 316.007h-59.27l13.334-60h59.266z" fill="#80aaff"/><path d="m436.006 436.007h-210-211c-8.291 0-15 6.709-15 15s6.709 15 15 15h211 210c8.291 0 15-6.709 15-15s-6.709-15-15-15z" fill="#47568c"/><path d="m451.006 451.007c0-8.291-6.709-15-15-15h-210v30h210c8.291 0 15-6.709 15-15z" fill="#29376d"/></g></svg>