<svg id="Capa_1" enable-background="new 0 0 512 512" height="512" viewBox="0 0 512 512" width="512" xmlns="http://www.w3.org/2000/svg"><g><path d="m436 241h-15v45h15 15v-45z" fill="#edf5ff"/><path d="m436 241h15v45h-15z" fill="#d5e8fe"/><path d="m436 346h-15v76c0 24.814-20.186 45-45 45h-120l30 30h90c24.62 0 46.318-12.085 60-30.463 9.3-12.491 15-27.805 15-44.537v-76z" fill="#405580"/><path d="m451 346h-15v120.537c9.3-12.491 15-27.805 15-44.537z" fill="#283d66"/><path d="m196 361h-15v121h15 15v-121z" fill="#405580"/><path d="m196 361h15v121h-15z" fill="#283d66"/><path d="m296.811 181h-100.811-196l71.195 210h124.805 170.815z" fill="#edf5ff"/><path d="m296.811 181h-100.811v210h170.815z" fill="#d5e8fe"/><g><path d="m332.664 25.155h29.997v45.016h-29.997z" fill="#fabe2c" transform="matrix(.707 -.707 .707 .707 68.126 259.795)"/></g><g><path d="m301 91h45v30h-45z" fill="#fabe2c"/></g><g><path d="m325.155 149.339h45.016v29.997h-45.016z" fill="#fabe2c" transform="matrix(.707 -.707 .707 .707 -14.376 293.968)"/></g><path d="m62.82 271h52.374l10.001 30h-52.377z" fill="#6aa9ff"/><path d="m136.806 241-10-30h58.389l9.999 30z" fill="#6aa9ff"/><path d="m236.805 271h58.383l9.998 30h-58.38z" fill="#2682ff"/><path d="m285.189 241h-58.383l-10-30h58.383z" fill="#2682ff"/><path d="m95.195 211 9.999 30h-52.373l-11-30z" fill="#6aa9ff"/><path d="m82.817 331h52.377l10 30h-52.378z" fill="#6aa9ff"/><path d="m266.805 361-9.999-30h58.379l10 30z" fill="#2682ff"/><g><path d="m449.339 141.829h29.997v45.016h-29.997z" fill="#ff9100" transform="matrix(.707 -.707 .707 .707 19.797 376.47)"/></g><g><path d="m466 91h46v30h-46z" fill="#ff9100"/></g><g><path d="m441.829 32.664h45.016v29.997h-45.016z" fill="#ff9100" transform="matrix(.707 -.707 .707 .707 102.299 342.296)"/></g><g fill="#fabe2c"><path d="m391 166v45h15 15v-45h-15z"/><path d="m406 0h-15v46h15 15v-46z"/></g><path d="m406 0h15v46h-15z" fill="#ff9100"/><path d="m406 166h15v45h-15z" fill="#ff9100"/><circle cx="406" cy="106" fill="#fed843" r="75"/><path d="m481 106c0-41.353-33.647-75-75-75v150c41.353 0 75-33.647 75-75z" fill="#fabe2c"/><path d="m256 452h-60-60c-24.853 0-45 20.147-45 45v15h105 105v-15c0-24.853-20.147-45-45-45z" fill="#6aa9ff"/><path d="m301 497c0-24.853-20.147-45-45-45h-60v60h105z" fill="#2682ff"/><g fill="#6aa9ff"><path d="m215.195 301-10.001-30h-9.194-49.195l10.001 30h39.194z"/><path d="m225.194 331h-29.194-29.194l9.999 30h19.195 39.194z"/></g><path d="m205.194 271h-9.194v30h19.195z" fill="#2682ff"/><path d="m225.194 331h-29.194v30h39.194z" fill="#2682ff"/><path d="m436 271h-45v45c0 24.814 20.186 45 45 45s45-20.186 45-45v-45z" fill="#6aa9ff"/><path d="m481 316v-45h-45v90c24.814 0 45-20.186 45-45z" fill="#2682ff"/></g></svg>